<svg width="576" height="512" viewBox="0 0 576 512" fill="none" xmlns="http://www.w3.org/2000/svg">
<path d="M500.409 382.036L394.827 460.086C380.995 470.353 363.88 476 345.983 476H74.8007C67.9633 476 63 470.317 63 463.458V388.169C63 381.308 68.6659 375.604 74.8007 375.604L118.073 375.623L154.413 346.022C170.121 333.394 191.237 325.433 212.338 325.433H336.675C351.915 325.433 363.927 339.057 361.387 354.744C359.335 367.097 347.812 375.623 335.308 375.623H274.866C268.029 375.623 263.065 381.309 263.065 387.466C263.065 393.624 268.731 399.31 274.866 399.31H369.116L462.662 330.155C476.573 319.809 496.118 322.827 506.372 336.796C517.289 352.152 514.32 371.761 500.409 382.036Z" fill="black"/>
<path d="M166.5 60.1805H126C126 138.523 189.471 201.93 267.75 201.93V282.93C267.75 294.638 276.863 303.75 287.43 303.75C297.998 303.75 308.25 294.638 308.25 283.5V202.5C308.25 124.221 244.779 60.1805 166.5 60.1805ZM409.5 20.25C356.186 20.25 309.895 49.6758 285.595 93.2133C303.156 112.274 316.129 135.536 322.931 161.241C394.313 153.837 450 93.593 450 20.25H409.5Z" fill="black"/>
</svg>
