<svg width="450" height="450" viewBox="0 0 450 450" fill="none" xmlns="http://www.w3.org/2000/svg">
<path d="M12 91.5H438V438H12V91.5ZM438 67.5H12V40C12 24.536 24.536 12 40 12H410C425.464 12 438 24.536 438 40V67.5Z" stroke="black" stroke-width="24" stroke-linejoin="round"/>
<path d="M118.063 209.782C112.588 209.782 107.685 210.864 103.356 213.029C99.154 215.194 95.5887 218.313 92.66 222.388C89.7313 226.335 87.503 231.174 85.975 236.904C84.5743 242.634 83.874 249.064 83.874 256.195C83.874 265.872 85.02 274.149 87.312 281.025C89.7313 287.774 93.4877 292.931 98.581 296.496C103.674 300.061 110.168 301.844 118.063 301.844C123.666 301.844 129.205 301.207 134.68 299.934C140.283 298.661 146.331 296.878 152.825 294.586V318.843C146.84 321.262 140.919 323.045 135.062 324.191C129.205 325.337 122.647 325.91 115.389 325.91C101.382 325.91 89.795 323.045 80.627 317.315C71.5863 311.458 64.9013 303.308 60.572 292.867C56.2427 282.298 54.078 270.011 54.078 256.004C54.078 245.69 55.4787 236.267 58.28 227.736C61.0813 219.077 65.156 211.628 70.504 205.389C75.9793 199.15 82.6643 194.311 90.559 190.873C98.581 187.435 107.749 185.716 118.063 185.716C124.812 185.716 131.56 186.607 138.309 188.39C145.185 190.045 151.743 192.337 157.982 195.266L148.623 218.759C143.53 216.34 138.373 214.239 133.152 212.456C128.059 210.673 123.029 209.782 118.063 209.782ZM175.5 310.63C175.5 304.773 177.092 300.698 180.275 298.406C183.459 295.987 187.342 294.777 191.926 294.777C196.383 294.777 200.203 295.987 203.386 298.406C206.57 300.698 208.161 304.773 208.161 310.63C208.161 316.233 206.57 320.307 203.386 322.854C200.203 325.273 196.383 326.483 191.926 326.483C187.342 326.483 183.459 325.273 180.275 322.854C177.092 320.307 175.5 316.233 175.5 310.63ZM175.5 233.657C175.5 227.8 177.092 223.725 180.275 221.433C183.459 219.014 187.342 217.804 191.926 217.804C196.383 217.804 200.203 219.014 203.386 221.433C206.57 223.725 208.161 227.8 208.161 233.657C208.161 239.26 206.57 243.334 203.386 245.881C200.203 248.3 196.383 249.51 191.926 249.51C187.342 249.51 183.459 248.3 180.275 245.881C177.092 243.334 175.5 239.26 175.5 233.657ZM297.006 187.626L246.2 324H220.415L271.221 187.626H297.006ZM308.865 310.63C308.865 304.773 310.456 300.698 313.64 298.406C316.823 295.987 320.707 294.777 325.291 294.777C329.747 294.777 333.567 295.987 336.751 298.406C339.934 300.698 341.526 304.773 341.526 310.63C341.526 316.233 339.934 320.307 336.751 322.854C333.567 325.273 329.747 326.483 325.291 326.483C320.707 326.483 316.823 325.273 313.64 322.854C310.456 320.307 308.865 316.233 308.865 310.63ZM363.329 310.63C363.329 304.773 364.921 300.698 368.104 298.406C371.288 295.987 375.171 294.777 379.755 294.777C384.212 294.777 388.032 295.987 391.215 298.406C394.399 300.698 395.99 304.773 395.99 310.63C395.99 316.233 394.399 320.307 391.215 322.854C388.032 325.273 384.212 326.483 379.755 326.483C375.171 326.483 371.288 325.273 368.104 322.854C364.921 320.307 363.329 316.233 363.329 310.63Z" fill="black"/>
</svg>
