<svg xmlns="http://www.w3.org/2000/svg" viewBox="0 0 19.8 19.8"><defs><style>.cls-1{fill:#bfbfbf;}.cls-2{fill:#202020;}.cls-3{fill:#9f9f9f;}.cls-4{fill:#404040;}.cls-5{fill:gray;}.cls-6{fill:#dfdfdf;}.cls-7{fill:#0970cd;}</style></defs><g id="Layer_2" data-name="Layer 2"><g id="Layer_1-2" data-name="Layer 1"><path class="cls-1" d="M9.9,9.9,4.51,1.6A9.72,9.72,0,0,1,9.9,0Z" transform="translate(0)"/><path class="cls-2" d="M9.9,9.9,3.41,2.43a8.13,8.13,0,0,1,1.1-.83Z" transform="translate(0)"/><path class="cls-3" d="M9.9,9.9,2,3.94A9.6,9.6,0,0,1,3.41,2.43Z" transform="translate(0)"/><path class="cls-4" d="M9.9,9.9l-9-4A8.75,8.75,0,0,1,2,3.94Z" transform="translate(0)"/><path class="cls-5" d="M9.9,9.9l-9.84,1a9.69,9.69,0,0,1,.8-5.06Z" transform="translate(0)"/><path class="cls-6" d="M9.9,9.9,4.37,18.1A9.43,9.43,0,0,1,.06,10.93Z" transform="translate(0)"/><path class="cls-7" d="M9.9,9.9V0a9.9,9.9,0,0,1,0,19.8,9.34,9.34,0,0,1-5.53-1.7Z" transform="translate(0)"/></g></g></svg>