<svg width="100" height="100" viewBox="0 0 100 100" fill="none" xmlns="http://www.w3.org/2000/svg">
<path d="M54.5 34L85.198 5.79306C88.5859 3.29065 91.724 1.9867 94.8387 4.831C97.9352 7.6744 96.9203 10.7435 94.6252 14.2448L69 47.5L54.5 34ZM47.0468 70.3488C44.6775 79.1172 36.3416 88.8755 28.2258 91.9811L6.73526 96.6395C3.51671 96.6395 3.27588 96.405 3.27588 93.2317C4.06566 90.8348 5.81943 88.0837 8.56411 87.6178L11.0519 87.0355C12.8441 85.1888 13.7909 82.5535 13.4612 79.416C13.3902 78.7348 13.3538 78.0356 13.3538 77.3364C15.7231 68.837 25.2378 60.7748 34.5506 58.8276L47.0104 69.0042C47.0286 69.2911 47.0468 69.9006 47.0468 70.3488Z" fill="black"/>
<path d="M7.64805 24.8938C2.84603 20.175 0.129379 15.1809 4.9314 10.4621L9.7891 5.69456C14.5896 0.975708 19.6644 3.6451 24.4668 8.36395L33.7642 17.4997L16.9455 34.0295L7.64805 24.8938ZM38.1056 21.7655L82.8832 65.783C84.881 67.746 86.3602 70.181 87.1478 72.8424L96.6646 92.8858C97.1448 94.4751 98.0614 94.86 96.6975 96.0321C95.6794 97.2043 95.2896 96.3079 93.6568 95.8401L73.2643 86.49C70.5557 85.7048 68.0777 84.2646 66.0799 82.2996L21.2907 38.2954L38.1056 21.7655Z" fill="black"/>
</svg>
