<svg width="576" height="512" viewBox="0 0 576 512" fill="none" xmlns="http://www.w3.org/2000/svg">
<path d="M559.7 392.2L424.6 491.71C406.9 504.8 385 512 362.1 512H15.1C6.351 512 0 504.754 0 496.01V400.02C0 391.272 7.25 384 15.1 384L70.47 384.024L116.97 346.284C137.07 330.184 164.09 320.034 191.09 320.034H350.19C369.69 320.034 385.06 337.404 381.81 357.404C379.185 373.154 364.44 384.024 348.44 384.024H271.1C262.351 384.024 256 391.273 256 399.124C256 406.975 263.25 414.224 271.1 414.224H391.7L511.4 326.054C529.2 312.864 554.21 316.712 567.33 334.521C581.3 354.1 577.5 379.1 559.7 392.2Z" fill="black"/>
<path d="M166.5 60.1805H126C126 138.523 189.471 201.93 267.75 201.93V282.93C267.75 294.638 276.863 303.75 287.43 303.75C297.998 303.75 308.25 294.638 308.25 283.5V202.5C308.25 124.221 244.779 60.1805 166.5 60.1805ZM409.5 20.25C356.186 20.25 309.895 49.6758 285.595 93.2133C303.156 112.274 316.129 135.536 322.931 161.241C394.313 153.837 450 93.593 450 20.25H409.5Z" fill="black"/>
</svg>
