<svg width="32" height="41" viewBox="0 0 32 41" fill="none" xmlns="http://www.w3.org/2000/svg">
<g clip-path="url(#clip0_19_191)">
<path d="M4.55266 0.5C2.44602 0.5 0.736866 2.17891 0.736866 4.25V36.75C0.736866 38.8203 2.44602 40.5 4.55266 40.5H12.1842V34.25C12.1842 32.1797 13.8934 30.5 16 30.5C18.1067 30.5 19.8158 32.1797 19.8158 34.25V40.5H27.4474C29.5548 40.5 31.2632 38.8203 31.2632 36.75V4.25C31.2632 2.17891 29.5548 0.5 27.4474 0.5H4.55266ZM26.1755 21.75C26.1755 22.4375 25.6063 23 24.9035 23H22.3597C21.6601 23 21.0877 22.4375 21.0877 21.75V19.25C21.0877 18.5625 21.6601 18 22.3597 18H24.9035C25.6063 18 26.1755 18.5625 26.1755 19.25V21.75ZM17.272 18C17.9715 18 18.5439 18.5625 18.5439 19.25V21.75C18.5439 22.4375 17.9715 23 17.272 23H14.7281C14.0285 23 13.4562 22.4375 13.4562 21.75V19.25C13.4562 18.5625 14.0285 18 14.7281 18H17.272ZM10.9123 21.75C10.9123 22.4375 10.3399 23 9.64038 23H7.09652C6.39696 23 5.82459 22.4375 5.82459 21.75V19.25C5.82459 18.5625 6.39696 18 7.09652 18H9.64038C10.3399 18 10.9123 18.5625 10.9123 19.25V21.75ZM24.9035 8C25.6063 8 26.1755 8.5625 26.1755 9.25V11.75C26.1755 12.4375 25.6063 13 24.9035 13H22.3597C21.6601 13 21.0877 12.4375 21.0877 11.75V9.25C21.0877 8.5625 21.6601 8 22.3597 8H24.9035ZM18.5439 11.75C18.5439 12.4375 17.9715 13 17.272 13H14.7281C14.0285 13 13.4562 12.4375 13.4562 11.75V9.25C13.4562 8.5625 14.0285 8 14.7281 8H17.272C17.9715 8 18.5439 8.5625 18.5439 9.25V11.75ZM9.64038 8C10.3399 8 10.9123 8.5625 10.9123 9.25V11.75C10.9123 12.4375 10.3399 13 9.64038 13H7.09652C6.39696 13 5.82459 12.4375 5.82459 11.75V9.25C5.82459 8.5625 6.39696 8 7.09652 8H9.64038Z" fill="black"/>
</g>
<defs>
<clipPath id="clip0_19_191">
<rect width="30.5263" height="40" fill="white" transform="matrix(-1 0 0 1 31.2632 0.5)"/>
</clipPath>
</defs>
</svg>
