<svg width="45" height="41" viewBox="0 0 45 41" fill="none" xmlns="http://www.w3.org/2000/svg">
<path d="M44.7721 20.4609C44.7721 21.8672 43.6113 22.9688 42.2958 22.9688H39.8195L39.8737 35.4766C39.8737 35.6953 39.8582 35.8984 39.835 36.1094V37.375C39.835 39.1016 38.4498 40.5 36.7396 40.5H35.5015C35.4164 40.5 35.3312 40.4297 35.2461 40.4922C35.1378 40.4297 35.0294 40.5 34.9211 40.5H30.5489C28.8387 40.5 27.4535 39.1016 27.4535 37.375V30.5C27.4535 29.1172 26.3469 28 24.9772 28H20.0246C18.6549 28 17.5483 29.1172 17.5483 30.5V37.375C17.5483 39.1016 16.1632 40.5 14.453 40.5H10.1272C10.0111 40.5 9.89505 40.4922 9.77898 40.4844C9.68612 40.4922 9.59326 40.5 9.50039 40.5H8.26225C6.55283 40.5 5.16688 39.1016 5.16688 37.375V28.625C5.16688 28.5547 5.1692 28.4766 5.17385 28.4062V22.9688H2.69446C1.29922 22.9688 0.214294 21.8672 0.214294 20.4609C0.214294 19.7578 0.446756 19.1328 0.98891 18.5859L20.8294 1.12625C21.3711 0.578281 21.9902 0.5 22.5319 0.5C23.0736 0.5 23.6926 0.656562 24.1647 1.04797L43.9209 18.5859C44.5399 19.1328 44.8572 19.7578 44.7721 20.4609Z" fill="black"/>
</svg>
