<svg width="41" height="41" viewBox="0 0 41 41" fill="none" xmlns="http://www.w3.org/2000/svg">
<g clip-path="url(#clip0_19_246)">
<path d="M40.5 20.5C40.5 31.5469 31.5469 40.5 20.5 40.5C9.45312 40.5 0.5 31.5469 0.5 20.5C0.5 9.45312 9.45312 0.5 20.5 0.5C31.5469 0.5 40.5 9.45312 40.5 20.5ZM4.5375 23.5547L7.01641 24.0547C7.63047 24.1797 8.26641 23.9844 8.71094 23.5391L9.91406 22.3359C10.8125 21.3672 12.3437 21.6797 12.9141 22.8281L13.6406 24.2734C13.9453 25.0234 14.7812 25.4297 15.6172 25.4297C16.8047 25.4297 17.6562 24.3594 17.3125 23.2188L16.8516 21.6641C16.4844 20.4609 17.3906 19.25 18.6484 19.25H18.8281C19.8047 19.25 20.8516 18.7266 21.4297 17.8594L22.2656 16.6016C22.7031 15.9453 22.6797 15.0781 22.2031 14.4375L20.9453 12.7578C20.1406 11.6875 20.6875 10.1406 21.9922 9.8125L23.3203 9.41406C23.9062 9.33594 24.3828 8.92188 24.6094 8.35938L25.8828 5.16328C24.2031 4.57188 22.3906 4.25 20.4297 4.25C11.5234 4.25 4.17969 11.5234 4.17969 20.5C4.17969 21.5469 4.34844 22.5703 4.5375 23.5547ZM35.6875 23.9688L34.4531 24.3203C33.9297 24.4609 33.375 24.25 33.0859 23.7969L32.9297 23.5547C32.4609 22.8203 31.6484 22.3047 30.7734 22.3047C29.9062 22.3047 29.0234 22.8203 28.6172 23.5547L28.1406 24.2969C28.0312 24.4688 27.8828 24.6172 27.7031 24.6484L24.8047 26.2891C23.4609 27.0781 22.8828 28.8203 23.4766 30.2969L23.9766 31.2656C24.6484 32.7656 26.375 33.4922 27.8516 32.9141L28.1172 32.7734C28.9062 32.5469 29.7812 32.6719 30.4609 33.1641L30.5781 33.25C33.4844 30.9453 35.5859 27.6719 36.3906 23.9141C36.1562 23.8906 35.9219 23.9062 35.6875 23.9688ZM12.6953 29.2109L15.1953 29.8359C15.8672 30.0078 16.5469 29.6016 16.7109 28.9297C16.8828 28.2578 16.4766 27.5781 15.8047 27.4141L13.3047 26.7891C12.6328 26.6172 11.9531 27.0234 11.7891 27.6953C11.6172 28.3672 12.0234 29.0469 12.6953 29.2109ZM18.9766 26.1328C18.8047 26.8047 19.2109 27.4844 19.8828 27.6484C20.5547 27.8203 21.2344 27.4141 21.3984 26.7422L22.0234 24.2422C22.1953 23.5703 21.7891 22.8906 21.1172 22.7266C20.4453 22.5547 19.7656 22.9609 19.6016 23.6328L18.9766 26.1328ZM25.6328 9.9375L24.3828 12.4375C24.0703 13.0547 24.3203 13.8125 24.9375 14.1172C25.5547 14.4297 26.3125 14.1797 26.6172 13.5625L27.8672 11.0625C28.1797 10.4453 27.9297 9.6875 27.3125 9.38281C26.6953 9.07031 25.9375 9.32031 25.6328 9.9375Z" fill="black"/>
</g>
<defs>
<clipPath id="clip0_19_246">
<rect width="40" height="40" fill="white" transform="translate(0.5 0.5)"/>
</clipPath>
</defs>
</svg>
