<svg width="46" height="41" viewBox="0 0 46 41" fill="none" xmlns="http://www.w3.org/2000/svg">
<g clip-path="url(#clip0_19_179)">
<path d="M39.6539 30.3465L31.3758 36.4442C30.2913 37.2463 28.9494 37.6875 27.5462 37.6875H6.28412C5.74804 37.6875 5.35889 37.2435 5.35889 36.7077V30.8257C5.35889 30.2897 5.80312 29.8441 6.28412 29.8441L9.67686 29.8455L12.5261 27.533C13.7577 26.5464 15.4133 25.9244 17.0677 25.9244H26.8164C28.0113 25.9244 28.953 26.9888 28.7539 28.2144C28.5931 29.1795 27.6896 29.8455 26.7092 29.8455H21.9703C21.4342 29.8455 21.045 30.2897 21.045 30.7708C21.045 31.2519 21.4893 31.6961 21.9703 31.6961H29.3599L36.6944 26.2933C37.7851 25.4851 39.3175 25.7209 40.1214 26.8122C40.9774 28.0119 40.7446 29.5438 39.6539 30.3465Z" fill="black"/>
<g clip-path="url(#clip1_19_179)">
<path d="M13.4738 5.2016H10.2984C10.2984 11.3221 15.2749 16.2758 21.4123 16.2758V22.6039C21.4123 23.5186 22.1268 24.2305 22.9554 24.2305C23.7839 24.2305 24.5877 23.5186 24.5877 22.6484V16.3203C24.5877 10.2048 19.6113 5.2016 13.4738 5.2016ZM32.5262 2.08203C28.3461 2.08203 24.7167 4.38092 22.8115 7.78229C24.1883 9.27137 25.2054 11.0887 25.7388 13.0969C31.3354 12.5185 35.7016 7.81195 35.7016 2.08203H32.5262Z" fill="black"/>
</g>
</g>
<defs>
<clipPath id="clip0_19_179">
<rect width="45.1613" height="40" fill="white" transform="translate(0.419373 0.5)"/>
</clipPath>
<clipPath id="clip1_19_179">
<rect width="25.4032" height="25.3125" fill="white" transform="translate(10.2984 0.5)"/>
</clipPath>
</defs>
</svg>
