<svg width="45" height="41" viewBox="0 0 45 41" fill="none" xmlns="http://www.w3.org/2000/svg">
<path d="M8.38285 3.85938C9.3325 3.85938 10.0997 4.63655 10.0997 5.59487V13.8059L18.5018 9.22855C19.3602 8.76214 20.4011 9.39125 20.4011 10.3783V13.8059L28.8031 9.22855C29.6616 8.76214 30.7024 9.39125 30.7024 10.3783V25.553C30.7024 26.9902 29.5489 28.1562 28.1271 28.1562H5.80751C4.38518 28.1562 3.23218 26.9902 3.23218 25.553V5.59487C3.23218 4.63655 4.00102 3.85938 4.94907 3.85938H8.38285Z" fill="#464646"/>
<path d="M38.4115 10.8125C39.7518 10.8125 40.8393 11.911 40.8393 13.2661V34.5308C40.8393 35.8854 39.7518 36.9844 38.4115 36.9844H33.5558V32.895C33.5558 31.5404 32.4684 30.4414 31.128 30.4414C29.7876 30.4414 28.7002 31.5404 28.7002 32.895V36.9844H23.8445C22.5036 36.9844 21.4167 35.8854 21.4167 34.5308V13.2661C21.4167 11.911 22.5036 10.8125 23.8445 10.8125H38.4115ZM24.6538 24.7163C24.6538 25.1661 25.0159 25.5342 25.4631 25.5342H27.0816C27.5267 25.5342 27.8909 25.1661 27.8909 24.7163V23.0806C27.8909 22.6307 27.5267 22.2627 27.0816 22.2627H25.4631C25.0159 22.2627 24.6538 22.6307 24.6538 23.0806V24.7163ZM30.3187 22.2627C29.8736 22.2627 29.5094 22.6307 29.5094 23.0806V24.7163C29.5094 25.1661 29.8736 25.5342 30.3187 25.5342H31.9373C32.3824 25.5342 32.7465 25.1661 32.7465 24.7163V23.0806C32.7465 22.6307 32.3824 22.2627 31.9373 22.2627H30.3187ZM34.3651 24.7163C34.3651 25.1661 34.7293 25.5342 35.1744 25.5342H36.7929C37.238 25.5342 37.6022 25.1661 37.6022 24.7163V23.0806C37.6022 22.6307 37.238 22.2627 36.7929 22.2627H35.1744C34.7293 22.2627 34.3651 22.6307 34.3651 23.0806V24.7163ZM25.4631 15.7197C25.0159 15.7197 24.6538 16.0878 24.6538 16.5376V18.1733C24.6538 18.6232 25.0159 18.9912 25.4631 18.9912H27.0816C27.5267 18.9912 27.8909 18.6232 27.8909 18.1733V16.5376C27.8909 16.0878 27.5267 15.7197 27.0816 15.7197H25.4631ZM29.5094 18.1733C29.5094 18.6232 29.8736 18.9912 30.3187 18.9912H31.9373C32.3824 18.9912 32.7465 18.6232 32.7465 18.1733V16.5376C32.7465 16.0878 32.3824 15.7197 31.9373 15.7197H30.3187C29.8736 15.7197 29.5094 16.0878 29.5094 16.5376V18.1733ZM35.1744 15.7197C34.7293 15.7197 34.3651 16.0878 34.3651 16.5376V18.1733C34.3651 18.6232 34.7293 18.9912 35.1744 18.9912H36.7929C37.238 18.9912 37.6022 18.6232 37.6022 18.1733V16.5376C37.6022 16.0878 37.238 15.7197 36.7929 15.7197H35.1744Z" fill="black"/>
</svg>
