<svg width="40" height="41" viewBox="0 0 40 41" fill="none" xmlns="http://www.w3.org/2000/svg">
<g clip-path="url(#clip0_19_257)">
<path d="M34.9297 3H4.92967C2.23748 3 -0.000732422 5.23828 -0.000732422 8V33C-0.000732422 35.7617 2.23755 38 4.92895 38H34.929C37.6907 38 39.929 35.7617 39.929 33V8C39.9297 5.23828 37.7578 3 34.9297 3ZM8.67967 8C10.7508 8 12.4297 9.67891 12.4297 11.75C12.4297 13.8211 10.8203 15.5 8.67967 15.5C6.53904 15.5 4.92967 13.8211 4.92967 11.75C4.92967 9.67891 6.6781 8 8.67967 8ZM34.8515 32.3438C34.6328 32.75 34.2109 33 33.75 33H6.40701C5.93662 33 5.50623 32.736 5.29295 32.3164C5.07967 31.8971 5.1199 31.3938 5.39717 31.0133L10.8659 23.5133C11.1015 23.1875 11.4765 23 11.875 23C12.2734 23 12.6497 23.1907 12.8851 23.5136L15.4211 26.9909L22.7101 16.1237C22.9453 15.7109 23.3359 15.5 23.75 15.5C24.164 15.5 24.5586 15.7087 24.7898 16.0566L34.7898 31.0566C35.0468 31.4375 35.0703 31.9297 34.8515 32.3438Z" fill="black"/>
</g>
<defs>
<clipPath id="clip0_19_257">
<rect width="40" height="40" fill="white" transform="translate(0 0.5)"/>
</clipPath>
</defs>
</svg>
