<svg width="60" height="60" viewBox="0 0 60 60" fill="none" xmlns="http://www.w3.org/2000/svg">
<circle cx="30" cy="30" r="30" fill="black"/>
<rect x="15" y="13.9102" width="30.9375" height="30.9375" fill="white"/>
<path d="M11.1313 10.3407C11.7557 10.3031 12.3818 10.3031 13.0063 10.3407H48.3406C48.5217 10.3167 48.7059 10.3337 48.8795 10.3905C49.0532 10.4473 49.2118 10.5424 49.3437 10.6688C49.8125 11.1469 49.6438 11.8594 49.6719 12.4594C49.6719 24.4844 49.6719 36.5157 49.6719 48.5532C49.6681 48.7183 49.6295 48.8807 49.5586 49.0298C49.4877 49.179 49.3861 49.3114 49.2604 49.4185C49.1347 49.5256 48.9877 49.605 48.8292 49.6514C48.6707 49.6977 48.5042 49.71 48.3406 49.6875H11.4594C11.3082 49.6941 11.1574 49.6693 11.0162 49.6147C10.8751 49.5602 10.7468 49.4769 10.6394 49.3704C10.532 49.2639 10.4478 49.1363 10.3921 48.9956C10.3363 48.855 10.3103 48.7044 10.3156 48.5532V11.4844C10.2963 11.2284 10.3673 10.9738 10.5163 10.7648C10.6654 10.5558 10.883 10.4058 11.1313 10.3407V10.3407ZM19.2031 20.1281C19.2031 26.6906 19.2031 33.2531 19.2031 39.8156H26.5906C26.5906 36.5625 26.5438 33.2531 26.5906 30.0468C27.3969 31.1718 28.1375 32.3531 28.9625 33.4687C30.3406 35.6062 31.8969 37.6219 33.2188 39.7969C35.6938 39.8625 38.1688 39.7969 40.6531 39.7969C40.6531 39.4875 40.7 39.1781 40.7 38.8594C40.7 32.5969 40.7 26.325 40.7 20.1094C38.2438 20.1094 35.7969 20.1094 33.35 20.1094C33.35 23.3812 33.35 26.6718 33.35 29.925C31.0719 26.6906 28.925 23.3625 26.5906 20.1563C24.1344 20.0531 21.6406 20.1281 19.2031 20.1281V20.1281Z" fill="black"/>
<path d="M15.0436 12.1875H44.9649C45.7201 12.1875 46.4444 12.4875 46.9784 13.0216C47.5125 13.5556 47.8125 14.2799 47.8125 15.0351V44.9564C47.8125 45.3315 47.7386 45.7029 47.5951 46.0494C47.4516 46.3959 47.2412 46.7108 46.976 46.976C46.7108 47.2412 46.3959 47.4515 46.0494 47.5951C45.7029 47.7386 45.3315 47.8125 44.9564 47.8125H15.0436C14.6685 47.8125 14.2971 47.7386 13.9506 47.5951C13.6041 47.4515 13.2892 47.2412 13.024 46.976C12.7588 46.7108 12.5484 46.3959 12.4049 46.0494C12.2614 45.7029 12.1875 45.3315 12.1875 44.9564V15.0351C12.1897 14.2791 12.4916 13.5548 13.027 13.021C13.5624 12.4873 14.2876 12.1875 15.0436 12.1875V12.1875Z" fill="black"/>
<path d="M30.0863 14.4785C20.7527 14.4785 13.2256 20.5001 13.2256 27.8105C13.2256 32.5556 16.3569 36.7105 21.0538 39.0831L19.4641 45.0205C19.4341 45.1095 19.4295 45.205 19.4507 45.2965C19.472 45.3879 19.5183 45.4717 19.5845 45.5383C19.681 45.6234 19.8051 45.6705 19.9338 45.6708C20.0404 45.6622 20.1416 45.6201 20.2228 45.5504L27.0634 40.9378C28.0732 41.0772 29.0911 41.1495 30.1104 41.1545C39.432 41.1545 46.9712 35.1329 46.9712 27.8105C46.9712 20.4881 39.4079 14.4785 30.0863 14.4785Z" fill="white"/>
<path d="M19.1266 25.7031H17.2839C17.0556 25.7097 16.83 25.6512 16.6336 25.5345C16.5464 25.4798 16.4714 25.4077 16.4134 25.3228C16.3554 25.2378 16.3155 25.1417 16.2964 25.0406C16.2905 24.9765 16.2905 24.9122 16.2964 24.8481C16.2907 24.7281 16.3139 24.6085 16.3643 24.4995C16.4146 24.3905 16.4904 24.2952 16.5854 24.2218C16.7954 24.0697 17.0488 23.9894 17.308 23.9929H22.86C23.0902 23.9848 23.3173 24.0479 23.5104 24.1736C23.5996 24.2258 23.6762 24.2972 23.7345 24.3826C23.7928 24.468 23.8314 24.5652 23.8476 24.6674C23.8535 24.7275 23.8535 24.788 23.8476 24.8481C23.8533 24.9697 23.83 25.091 23.7798 25.2019C23.7295 25.3129 23.6537 25.4103 23.5585 25.4862C23.3537 25.6381 23.1027 25.7148 22.848 25.7031H21.0656V32.0379C21.0728 32.1729 21.0519 32.3078 21.0042 32.4343C20.9565 32.5607 20.8831 32.676 20.7886 32.7726C20.6979 32.8649 20.5889 32.9373 20.4686 32.985C20.3483 33.0327 20.2194 33.0547 20.09 33.0495C19.8639 33.056 19.6425 32.9837 19.4638 32.8449C19.2937 32.7093 19.1782 32.5168 19.1386 32.3028C19.1267 32.2149 19.1267 32.1258 19.1386 32.0379L19.1266 25.7031Z" fill="black"/>
<path d="M24.3789 24.4624C24.4319 24.2642 24.5563 24.0926 24.7282 23.9806C24.9113 23.8768 25.12 23.8267 25.3304 23.8361H25.788C26.0112 23.8281 26.2322 23.8823 26.4263 23.9926C26.632 24.131 26.7782 24.3416 26.8358 24.5828L29.2445 31.3873C29.3069 31.5648 29.3592 31.7459 29.401 31.9293C29.4051 32.0056 29.4051 32.0819 29.401 32.1581C29.4051 32.2755 29.3835 32.3923 29.3377 32.5005C29.292 32.6087 29.2231 32.7056 29.1361 32.7844C29.0517 32.8709 28.9504 32.939 28.8385 32.9846C28.7266 33.0302 28.6065 33.0522 28.4857 33.0493C28.3 33.0678 28.1134 33.0232 27.9561 32.9227C27.7988 32.8222 27.6799 32.6717 27.6186 32.4954L27.1128 31.014H23.9454L23.4395 32.4954C23.3797 32.6751 23.2594 32.8286 23.0991 32.9296C22.9388 33.0307 22.7484 33.0729 22.5604 33.0493C22.3567 33.0546 22.1572 32.9909 21.9943 32.8686C21.8356 32.7424 21.7285 32.5626 21.6932 32.3629C21.6869 32.2948 21.6869 32.2262 21.6932 32.1581C21.6726 32.0386 21.6726 31.9164 21.6932 31.7969C21.6932 31.6644 21.7775 31.5198 21.8257 31.3873L24.3789 24.4624ZM25.5833 26.0401L24.4391 29.6531H26.7153L25.5833 26.0401Z" fill="black"/>
<path d="M29.6768 24.8487C29.6646 24.5784 29.7598 24.3143 29.9418 24.1141C30.0343 24.0208 30.1453 23.9479 30.2677 23.9002C30.3901 23.8524 30.5211 23.8309 30.6523 23.8369C30.878 23.8343 31.0981 23.9063 31.2786 24.0417C31.4459 24.183 31.557 24.3795 31.5917 24.5957C31.6036 24.6796 31.6036 24.7648 31.5917 24.8487V31.1835H34.9037C35.1332 31.1805 35.3589 31.2431 35.554 31.3641C35.6417 31.4181 35.717 31.4901 35.7751 31.5752C35.8332 31.6602 35.8728 31.7565 35.8912 31.8579C35.8912 31.8579 35.8912 31.9783 35.8912 32.0386C35.8969 32.1585 35.8737 32.278 35.8233 32.387C35.773 32.496 35.6972 32.5914 35.6022 32.6648C35.3922 32.8169 35.1388 32.8971 34.8796 32.8936H30.8089C30.5496 32.9103 30.2919 32.8428 30.0743 32.701C29.8795 32.5554 29.7498 32.3392 29.713 32.0988C29.7041 31.9665 29.7041 31.8336 29.713 31.7013L29.6768 24.8487Z" fill="black"/>
<path d="M36.1085 24.8488C36.1013 24.5793 36.1959 24.317 36.3735 24.1142C36.554 23.9502 36.7855 23.8533 37.029 23.8401C37.2726 23.827 37.5132 23.8982 37.7103 24.0419C37.8812 24.1819 37.9965 24.3783 38.0355 24.5958C38.0414 24.68 38.0414 24.7646 38.0355 24.8488V27.7994L41.0824 24.2827C41.1998 24.1627 41.3245 24.0502 41.4558 23.9456C41.5795 23.8719 41.7213 23.8342 41.8653 23.8371C42.0758 23.8359 42.2816 23.899 42.4554 24.0177C42.5373 24.0729 42.6072 24.144 42.661 24.2268C42.7148 24.3096 42.7514 24.4023 42.7685 24.4995C42.7734 24.5233 42.7734 24.548 42.7685 24.5718C42.7627 24.5996 42.7627 24.6283 42.7685 24.6561C42.7681 24.7828 42.7349 24.9073 42.6722 25.0174C42.6083 25.134 42.5315 25.243 42.4434 25.3425L40.4441 27.5345L42.8528 31.2679V31.3883C42.9779 31.5609 43.0754 31.7519 43.1419 31.9544V32.0146C43.1558 32.1541 43.1357 32.295 43.0832 32.425C43.0308 32.5551 42.9476 32.6704 42.8408 32.7613C42.6399 32.9131 42.3941 32.9937 42.1423 32.9902C41.9749 32.997 41.8088 32.9596 41.6605 32.8817C41.5001 32.7741 41.3679 32.6295 41.2751 32.4602L39.0351 28.8472L37.9632 29.9673V31.9784C37.9704 32.2479 37.8758 32.5102 37.6983 32.713C37.6031 32.8061 37.4899 32.8787 37.3656 32.9264C37.2413 32.974 37.1086 32.9957 36.9757 32.9902C36.7534 32.9948 36.5364 32.9224 36.3614 32.7854C36.1913 32.6498 36.0759 32.4574 36.0363 32.2435C36.0244 32.1556 36.0244 32.0663 36.0363 31.9784L36.1085 24.8488Z" fill="black"/>
</svg>
