<svg width="46" height="41" viewBox="0 0 46 41" fill="none" xmlns="http://www.w3.org/2000/svg">
<g clip-path="url(#clip0_19_248)">
<path d="M43 3C44.3828 3 45.5 4.11953 45.5 5.5C45.5 6.88047 44.3828 8 43 8H39.875V13H45.5V23C41.2891 23 38 26.2891 38 30.5V35.5C38 36.8828 36.8828 38 35.5 38H33C31.6172 38 30.5 36.8828 30.5 35.5V30.5C30.5 26.2891 27.1406 23 23 23C18.7891 23 15.5 26.2891 15.5 30.5V35.5C15.5 36.8828 14.3828 38 13 38H10.5C9.11719 38 8 36.8828 8 35.5V30.5C8 26.2891 4.64219 23 0.5 23V13H6.125V8H3C1.61953 8 0.5 6.88047 0.5 5.5C0.5 4.11953 1.61953 3 3 3H43ZM36.125 8H29.875V13H36.125V8ZM19.875 8V13H26.125V8H19.875ZM16.125 8H9.875V13H16.125V8Z" fill="black"/>
</g>
<defs>
<clipPath id="clip0_19_248">
<rect width="45" height="40" fill="white" transform="translate(0.5 0.5)"/>
</clipPath>
</defs>
</svg>
